<mxfile host="app.diagrams.net" modified="2022-06-15T02:04:33.944Z" agent="5.0 (Macintosh; Intel Mac OS X 10_14_2) AppleWebKit/537.36 (KHTML, like Gecko) Chrome/102.0.0.0 Safari/537.36" etag="4iHTB3qaWwNQPG9UM6tv" version="17.4.5" type="github">
  <diagram id="zMt9Hd5KpfGIPWcDRZlN" name="第 1 页">
    <mxGraphModel dx="946" dy="857" grid="1" gridSize="10" guides="1" tooltips="1" connect="1" arrows="1" fold="1" page="1" pageScale="1" pageWidth="827" pageHeight="1169" math="0" shadow="0">
      <root>
        <mxCell id="0" />
        <mxCell id="1" parent="0" />
        <mxCell id="9ZNj1bbA5kVdNDrdjpqz-1" value="" style="rounded=0;whiteSpace=wrap;html=1;strokeWidth=2;fillColor=#fff2cc;strokeColor=#d6b656;" vertex="1" parent="1">
          <mxGeometry x="320" y="280" width="160" height="80" as="geometry" />
        </mxCell>
        <mxCell id="9ZNj1bbA5kVdNDrdjpqz-2" value="" style="endArrow=none;html=1;rounded=0;strokeWidth=2;fillColor=#f8cecc;strokeColor=#b85450;" edge="1" parent="1">
          <mxGeometry width="50" height="50" relative="1" as="geometry">
            <mxPoint x="240" y="320" as="sourcePoint" />
            <mxPoint x="560" y="320" as="targetPoint" />
          </mxGeometry>
        </mxCell>
        <mxCell id="9ZNj1bbA5kVdNDrdjpqz-3" value="" style="endArrow=none;html=1;rounded=0;strokeWidth=2;fillColor=#f8cecc;strokeColor=#b85450;" edge="1" parent="1">
          <mxGeometry width="50" height="50" relative="1" as="geometry">
            <mxPoint x="240" y="360" as="sourcePoint" />
            <mxPoint x="560" y="360" as="targetPoint" />
          </mxGeometry>
        </mxCell>
        <mxCell id="9ZNj1bbA5kVdNDrdjpqz-4" value="" style="endArrow=none;html=1;rounded=0;strokeWidth=2;fillColor=#f8cecc;strokeColor=#b85450;" edge="1" parent="1">
          <mxGeometry width="50" height="50" relative="1" as="geometry">
            <mxPoint x="240" y="280" as="sourcePoint" />
            <mxPoint x="560" y="280" as="targetPoint" />
          </mxGeometry>
        </mxCell>
        <mxCell id="9ZNj1bbA5kVdNDrdjpqz-5" value="" style="endArrow=classic;html=1;rounded=0;strokeWidth=2;" edge="1" parent="1">
          <mxGeometry width="50" height="50" relative="1" as="geometry">
            <mxPoint x="200" y="400" as="sourcePoint" />
            <mxPoint x="620" y="400" as="targetPoint" />
          </mxGeometry>
        </mxCell>
        <mxCell id="9ZNj1bbA5kVdNDrdjpqz-6" value="" style="endArrow=classic;html=1;rounded=0;strokeWidth=2;" edge="1" parent="1">
          <mxGeometry width="50" height="50" relative="1" as="geometry">
            <mxPoint x="200" y="400" as="sourcePoint" />
            <mxPoint x="200" y="150" as="targetPoint" />
          </mxGeometry>
        </mxCell>
        <mxCell id="9ZNj1bbA5kVdNDrdjpqz-7" value="Y" style="text;html=1;align=center;verticalAlign=middle;resizable=0;points=[];autosize=1;strokeColor=none;fillColor=none;fontSize=16;" vertex="1" parent="1">
          <mxGeometry x="165" y="148" width="30" height="20" as="geometry" />
        </mxCell>
        <mxCell id="9ZNj1bbA5kVdNDrdjpqz-8" value="x" style="text;html=1;align=center;verticalAlign=middle;resizable=0;points=[];autosize=1;strokeColor=none;fillColor=none;fontSize=16;" vertex="1" parent="1">
          <mxGeometry x="600" y="404" width="20" height="20" as="geometry" />
        </mxCell>
        <mxCell id="9ZNj1bbA5kVdNDrdjpqz-9" value="Y上" style="text;html=1;align=center;verticalAlign=middle;resizable=0;points=[];autosize=1;strokeColor=none;fillColor=none;fontSize=16;fontColor=#B85450;" vertex="1" parent="1">
          <mxGeometry x="567" y="270" width="40" height="20" as="geometry" />
        </mxCell>
        <mxCell id="9ZNj1bbA5kVdNDrdjpqz-10" value="Y中" style="text;html=1;align=center;verticalAlign=middle;resizable=0;points=[];autosize=1;strokeColor=none;fillColor=none;fontSize=16;fontColor=#B85450;" vertex="1" parent="1">
          <mxGeometry x="567" y="310" width="40" height="20" as="geometry" />
        </mxCell>
        <mxCell id="9ZNj1bbA5kVdNDrdjpqz-11" value="Y下" style="text;html=1;align=center;verticalAlign=middle;resizable=0;points=[];autosize=1;strokeColor=none;fillColor=none;fontSize=16;fontColor=#B85450;" vertex="1" parent="1">
          <mxGeometry x="567" y="350" width="40" height="20" as="geometry" />
        </mxCell>
        <mxCell id="9ZNj1bbA5kVdNDrdjpqz-12" value="" style="endArrow=none;html=1;rounded=0;fontSize=16;strokeWidth=2;fillColor=#dae8fc;strokeColor=#0062C4;" edge="1" parent="1">
          <mxGeometry width="50" height="50" relative="1" as="geometry">
            <mxPoint x="399.5" y="380" as="sourcePoint" />
            <mxPoint x="399.5" y="240" as="targetPoint" />
          </mxGeometry>
        </mxCell>
        <mxCell id="9ZNj1bbA5kVdNDrdjpqz-13" value="" style="endArrow=none;html=1;rounded=0;fontSize=16;strokeWidth=2;fillColor=#dae8fc;strokeColor=#0062C4;" edge="1" parent="1">
          <mxGeometry width="50" height="50" relative="1" as="geometry">
            <mxPoint x="480" y="380" as="sourcePoint" />
            <mxPoint x="480" y="240" as="targetPoint" />
          </mxGeometry>
        </mxCell>
        <mxCell id="9ZNj1bbA5kVdNDrdjpqz-14" value="" style="endArrow=none;html=1;rounded=0;fontSize=16;strokeWidth=2;fillColor=#dae8fc;strokeColor=#0062C4;fontColor=#0062C4;" edge="1" parent="1">
          <mxGeometry width="50" height="50" relative="1" as="geometry">
            <mxPoint x="320" y="380" as="sourcePoint" />
            <mxPoint x="320" y="240" as="targetPoint" />
          </mxGeometry>
        </mxCell>
        <mxCell id="9ZNj1bbA5kVdNDrdjpqz-15" value="X左" style="text;html=1;align=center;verticalAlign=middle;resizable=0;points=[];autosize=1;strokeColor=none;fillColor=none;fontSize=16;fontColor=#0062C4;" vertex="1" parent="1">
          <mxGeometry x="300" y="210" width="40" height="20" as="geometry" />
        </mxCell>
        <mxCell id="9ZNj1bbA5kVdNDrdjpqz-16" value="X中" style="text;html=1;align=center;verticalAlign=middle;resizable=0;points=[];autosize=1;strokeColor=none;fillColor=none;fontSize=16;fontColor=#0062C4;" vertex="1" parent="1">
          <mxGeometry x="374" y="210" width="40" height="20" as="geometry" />
        </mxCell>
        <mxCell id="9ZNj1bbA5kVdNDrdjpqz-17" value="X右" style="text;html=1;align=center;verticalAlign=middle;resizable=0;points=[];autosize=1;strokeColor=none;fillColor=none;fontSize=16;fontColor=#0062C4;" vertex="1" parent="1">
          <mxGeometry x="460" y="210" width="40" height="20" as="geometry" />
        </mxCell>
      </root>
    </mxGraphModel>
  </diagram>
</mxfile>
